<?xml version="1.0" encoding="UTF-8"?>
<!DOCTYPE svg PUBLIC "-//W3C//DTD SVG 1.1//EN" "http://www.w3.org/Graphics/SVG/1.1/DTD/svg11.dtd">
<svg version="1.1" xmlns="http://www.w3.org/2000/svg" xmlns:xlink="http://www.w3.org/1999/xlink" x="0" y="0" width="175.748" height="28.347" viewBox="0, 0, 175.748, 28.347">
  <g id="Layer_1">
    <path d="M4.555,22.019 L7.694,22.019 L7.694,25.158 L4.555,25.158 z M7.693,18.882 L10.832,18.882 L10.832,22.021 L7.693,22.021 z M10.832,15.742 L13.971,15.742 L13.971,18.882 L10.832,18.882 z M4.555,3.187 L7.694,3.187 L7.694,6.326 L4.555,6.326 z M7.693,6.326 L10.832,6.326 L10.832,9.464 L7.693,9.464 z M10.832,9.464 L13.971,9.464 L13.971,12.603 L10.832,12.603 z M13.971,12.604 L17.11,12.604 L17.11,15.743 L13.971,15.743 z M13.971,22.019 L17.11,22.019 L17.11,25.158 L13.971,25.158 z M17.11,18.882 L20.249,18.882 L20.249,22.021 L17.11,22.021 z M20.249,15.742 L23.388,15.742 L23.388,18.882 L20.249,18.882 z M13.971,3.187 L17.11,3.187 L17.11,6.326 L13.971,6.326 z M17.11,6.326 L20.249,6.326 L20.249,9.464 L17.11,9.464 z M20.249,9.464 L23.388,9.464 L23.388,12.603 L20.249,12.603 z M23.387,15.742 L26.526,15.742 L26.526,12.603 L23.387,12.603 z" fill="#1A1919"/>
    <path d="M42.627,20.483 L40.599,12.089 L38.571,20.483 L34.916,20.483 L31.081,7.089 L34.956,7.089 L36.984,16.025 L39.273,7.089 L41.924,7.089 L44.213,16.025 L46.222,7.089 L50.117,7.089 L46.282,20.483 z" fill="#1A1919"/>
    <g>
      <path d="M55.089,13.033 C53.744,13.033 53.222,13.836 53.101,14.539 L57.097,14.539 C57.017,13.856 56.515,13.033 55.089,13.033 M49.948,15.623 C49.948,12.812 52.057,10.543 55.089,10.543 C57.961,10.543 60.049,12.651 60.049,15.945 L60.049,16.648 L53.141,16.648 C53.362,17.511 54.165,18.234 55.571,18.234 C56.254,18.234 57.378,17.933 57.941,17.41 L59.286,19.439 C58.322,20.302 56.715,20.724 55.23,20.724 C52.237,20.724 49.948,18.776 49.948,15.623" fill="#1A1919"/>
      <path d="M66.501,17.993 C67.726,17.993 68.649,17.09 68.649,15.624 C68.649,14.178 67.726,13.274 66.501,13.274 C65.838,13.274 65.035,13.636 64.653,14.158 L64.653,17.13 C65.035,17.652 65.838,17.993 66.501,17.993 M61.561,20.483 L61.561,7.09 L64.653,7.09 L64.653,11.929 C65.417,10.965 66.46,10.543 67.525,10.543 C69.955,10.543 71.802,12.451 71.802,15.624 C71.802,18.917 69.915,20.724 67.525,20.724 C66.44,20.724 65.457,20.282 64.653,19.359 L64.653,20.483 z" fill="#1A1919"/>
      <path d="M87.983,13.776 C87.983,11.708 86.738,10.101 84.289,10.101 L82.1,10.101 L82.1,17.471 L84.268,17.471 C86.618,17.471 87.983,15.764 87.983,13.776 M78.646,20.483 L78.646,7.089 L84.268,7.089 C88.485,7.089 91.517,9.619 91.517,13.776 C91.517,17.933 88.485,20.483 84.289,20.483 z" fill="#1A1919"/>
      <path d="M93.16,10.785 L96.253,10.785 L96.253,20.483 L93.16,20.483 z M93.16,20.483 M92.94,8.134 C92.94,7.149 93.723,6.366 94.707,6.366 C95.691,6.366 96.494,7.149 96.494,8.134 C96.494,9.117 95.691,9.92 94.707,9.92 C93.723,9.92 92.94,9.117 92.94,8.134" fill="#1A1919"/>
      <path d="M98.416,20.483 L98.416,10.784 L101.509,10.784 L101.509,11.969 C102.151,11.186 103.396,10.523 104.541,10.523 L104.541,13.495 C104.36,13.435 104.1,13.415 103.778,13.415 C102.975,13.415 101.91,13.756 101.509,14.298 L101.509,20.483 z" fill="#1A1919"/>
      <path d="M110.353,13.033 C109.007,13.033 108.486,13.836 108.365,14.539 L112.361,14.539 C112.281,13.856 111.779,13.033 110.353,13.033 M105.212,15.623 C105.212,12.812 107.321,10.543 110.353,10.543 C113.225,10.543 115.313,12.651 115.313,15.945 L115.313,16.648 L108.405,16.648 C108.626,17.511 109.429,18.234 110.835,18.234 C111.518,18.234 112.642,17.933 113.205,17.41 L114.55,19.439 C113.586,20.302 111.98,20.724 110.494,20.724 C107.501,20.724 105.212,18.776 105.212,15.623" fill="#1A1919"/>
      <path d="M116.226,15.623 C116.226,12.592 118.475,10.542 121.507,10.542 C123.616,10.542 124.901,11.467 125.483,12.33 L123.475,14.198 C123.093,13.635 122.471,13.273 121.648,13.273 C120.363,13.273 119.378,14.158 119.378,15.623 C119.378,17.09 120.363,17.993 121.648,17.993 C122.471,17.993 123.093,17.591 123.475,17.049 L125.483,18.937 C124.901,19.779 123.616,20.725 121.507,20.725 C118.475,20.725 116.226,18.656 116.226,15.623" fill="#1A1919"/>
      <path d="M127.774,17.872 L127.774,13.455 L126.169,13.455 L126.169,10.785 L127.774,10.785 L127.774,8.134 L130.867,8.134 L130.867,10.785 L132.835,10.785 L132.835,13.455 L130.867,13.455 L130.867,17.01 C130.867,17.57 131.188,17.993 131.711,17.993 C132.051,17.993 132.393,17.872 132.494,17.751 L133.096,20.082 C132.714,20.442 131.952,20.725 130.806,20.725 C128.838,20.725 127.774,19.74 127.774,17.872" fill="#1A1919"/>
      <path d="M134.467,10.785 L137.559,10.785 L137.559,20.483 L134.467,20.483 z M134.467,20.483 M134.245,8.134 C134.245,7.149 135.028,6.366 136.013,6.366 C136.996,6.366 137.8,7.149 137.8,8.134 C137.8,9.117 136.996,9.92 136.013,9.92 C135.028,9.92 134.245,9.117 134.245,8.134" fill="#1A1919"/>
      <path d="M146.458,15.623 C146.458,14.339 145.695,13.273 144.329,13.273 C143.004,13.273 142.241,14.339 142.241,15.623 C142.241,16.928 143.004,17.993 144.329,17.993 C145.695,17.993 146.458,16.928 146.458,15.623 M139.068,15.623 C139.068,12.892 141.036,10.542 144.329,10.542 C147.663,10.542 149.631,12.892 149.631,15.623 C149.631,18.354 147.663,20.725 144.329,20.725 C141.036,20.725 139.068,18.354 139.068,15.623" fill="#1A1919"/>
      <path d="M157.756,20.483 L157.756,14.88 C157.756,13.696 157.134,13.274 156.17,13.274 C155.246,13.274 154.644,13.776 154.282,14.218 L154.282,20.483 L151.19,20.483 L151.19,10.784 L154.282,10.784 L154.282,11.969 C154.864,11.286 156.01,10.543 157.656,10.543 C159.845,10.543 160.849,11.828 160.849,13.615 L160.849,20.483 z" fill="#1A1919"/>
      <path d="M162.238,19.218 L163.523,17.009 C164.247,17.652 165.792,18.314 166.936,18.314 C167.861,18.314 168.242,18.053 168.242,17.631 C168.242,16.426 162.6,17.671 162.6,13.736 C162.6,12.029 164.085,10.543 166.757,10.543 C168.402,10.543 169.768,11.065 170.812,11.828 L169.628,14.017 C169.046,13.454 167.941,12.952 166.777,12.952 C166.053,12.952 165.572,13.234 165.572,13.615 C165.572,14.679 171.193,13.575 171.193,17.551 C171.193,19.399 169.568,20.724 166.796,20.724 C165.049,20.724 163.262,20.141 162.238,19.218" fill="#1A1919"/>
    </g>
  </g>
</svg>
